<svg xmlns="http://www.w3.org/2000/svg" viewBox="0 0 12.9 11.19"><defs><style>.cls-1{fill:#fff;}</style></defs><g id="Calque_2" data-name="Calque 2"><g id="Calque_1-2" data-name="Calque 1"><path id="ajust" class="cls-1" d="M3.87,0A2.17,2.17,0,0,0,2.51.48a2.2,2.2,0,0,0-.75,1.24H0v.86H1.76a2.2,2.2,0,0,0,.75,1.24,2.17,2.17,0,0,0,2.72,0A2.15,2.15,0,0,0,6,2.58H12.9V1.72H6A2.14,2.14,0,0,0,3.87,0ZM9,6.88a2.14,2.14,0,0,0-1.36.49A2.17,2.17,0,0,0,6.92,8.6H0v.86H6.92a2.17,2.17,0,0,0,.75,1.24A2.2,2.2,0,0,0,9,11.19a2.16,2.16,0,0,0,1.36-.49,2.12,2.12,0,0,0,.75-1.24H12.9V8.6H11.14A2.17,2.17,0,0,0,9,6.88Z"/></g></g></svg>