<svg xmlns="http://www.w3.org/2000/svg" viewBox="0 0 10.5 12"><defs><style>.cls-1{fill:#fff;fill-rule:evenodd;}</style></defs><g id="Calque_2" data-name="Calque 2"><g id="Calque_1-2" data-name="Calque 1"><path class="cls-1" d="M5.25,0A.75.75,0,0,1,6,.75V9.44L9.22,6.22a.63.63,0,0,1,.24-.16.73.73,0,0,1,.58,0,.74.74,0,0,1,.4.4.73.73,0,0,1,0,.58.63.63,0,0,1-.16.24l-4.5,4.5a.63.63,0,0,1-.24.16.73.73,0,0,1-.58,0,.63.63,0,0,1-.24-.16L.22,7.28A.63.63,0,0,1,.06,7a.73.73,0,0,1,0-.58.63.63,0,0,1,.16-.24A.75.75,0,0,1,.75,6,.72.72,0,0,1,1,6.06a.63.63,0,0,1,.24.16L4.5,9.44V.75A.75.75,0,0,1,5.25,0Z"/></g></g></svg>