<svg xmlns="http://www.w3.org/2000/svg" viewBox="0 0 18 16.5"><defs><style>.cls-1{fill:#777574;}.cls-2{fill:#fff;}</style></defs><g id="Calque_2" data-name="Calque 2"><g id="Calque_1-2" data-name="Calque 1"><path class="cls-1" d="M15.38,0H7.88A2.63,2.63,0,0,0,5.25,2.63V7.5h7.19L10,5A.75.75,0,0,1,10,4a.75.75,0,0,1,1,0l3.75,3.75a.75.75,0,0,1,0,1.06L11,12.53A.75.75,0,0,1,10,11.47L12.44,9H5.25v4.88a3,3,0,0,0,3,2.62h7.13A2.63,2.63,0,0,0,18,13.88V2.63A2.63,2.63,0,0,0,15.38,0ZM.75,7.5A.75.75,0,0,0,.75,9h4.5V7.5Z"/><path class="cls-2" d="M5.25,7.5h7.19L10,5A.75.75,0,0,1,10,4a.75.75,0,0,1,1,0l3.75,3.75a.75.75,0,0,1,0,1.06L11,12.53A.75.75,0,0,1,10,11.47L12.44,9H.75a.75.75,0,0,1,0-1.5Z"/></g></g></svg>