<svg xmlns="http://www.w3.org/2000/svg" viewBox="0 0 18 16.5"><defs><style>.cls-1{fill:#777574;}.cls-2{fill:#fff;}</style></defs><g id="Calque_2" data-name="Calque 2"><g id="Calque_1-2" data-name="Calque 1"><path class="cls-1" d="M.77.77A2.63,2.63,0,0,0,0,2.62V13.87A2.63,2.63,0,0,0,2.62,16.5H9.75a3,3,0,0,0,3-2.62V9H5.56L8,11.47A.75.75,0,0,1,7,12.53L3.22,8.78a.75.75,0,0,1,0-1.06L7,4a.75.75,0,0,1,1.27.53A.78.78,0,0,1,8,5L5.56,7.5h7.19V2.63A2.63,2.63,0,0,0,10.13,0H2.63A2.63,2.63,0,0,0,.77.77Zm12,6.73V9h4.5a.75.75,0,0,0,0-1.5Z"/><path class="cls-2" d="M17.25,7.5a.75.75,0,0,1,0,1.5H5.56L8,11.47A.75.75,0,0,1,7,12.53L3.22,8.78a.75.75,0,0,1,0-1.06L7,4a.75.75,0,0,1,1.27.53A.78.78,0,0,1,8,5L5.56,7.5H17.25Z"/></g></g></svg>