<svg xmlns="http://www.w3.org/2000/svg" viewBox="0 0 75.2 8.53"><defs><style>.cls-1{fill:#c9c5c2;}.cls-1,.cls-4{fill-rule:evenodd;}.cls-2,.cls-3{fill:none;stroke-linecap:round;stroke-width:0.95px;}.cls-2{stroke:#000;}.cls-3{stroke:#c9c5c2;}</style></defs><g id="Calque_2" data-name="Calque 2"><g id="Calque_1-2" data-name="Calque 1"><g id="fleches"><path id="f-prv" class="cls-1" d="M13.27,4.27a.48.48,0,0,1-.47.47H1.62l3,3a.48.48,0,0,1,.14.34.48.48,0,0,1-.47.47.48.48,0,0,1-.34-.14L.14,4.6A.4.4,0,0,1,0,4.45a.39.39,0,0,1,0-.18.41.41,0,0,1,0-.19.49.49,0,0,1,.1-.15L3.93.14A.48.48,0,0,1,4.27,0a.48.48,0,0,1,.47.47A.48.48,0,0,1,4.6.81l-3,3H12.8a.47.47,0,0,1,.33.14A.48.48,0,0,1,13.27,4.27Z"/><path class="cls-2" d="M19.27,4.27H37"/><path id="prv" class="cls-3" d="M38.23,4.27H55.92"/><path id="f-next" class="cls-4" d="M61.93,4.27a.48.48,0,0,1,.14-.34.45.45,0,0,1,.33-.14H73.58l-3-3a.48.48,0,0,1-.14-.34A.48.48,0,0,1,70.93,0a.48.48,0,0,1,.34.14l3.79,3.79a.49.49,0,0,1,.1.15.41.41,0,0,1,0,.19.5.5,0,0,1-.14.33L71.27,8.39a.48.48,0,0,1-.34.14.48.48,0,0,1-.47-.47.48.48,0,0,1,.14-.34l3-3H62.4a.45.45,0,0,1-.33-.14A.47.47,0,0,1,61.93,4.27Z"/></g></g></g></svg>