<svg xmlns="http://www.w3.org/2000/svg" viewBox="0 0 9.37 7.45"><defs><style>.cls-1{fill:#777574;}</style></defs><g id="Calque_2" data-name="Calque 2"><g id="Calque_1-2" data-name="Calque 1"><path id="group" class="cls-1" d="M2.94,3.61A1.8,1.8,0,0,0,4.21.53,1.77,1.77,0,0,0,2.94,0,1.81,1.81,0,0,0,1.66,3.09,1.84,1.84,0,0,0,2.94,3.61ZM7,3.61a1.36,1.36,0,0,0,1-.39,1.35,1.35,0,0,0,.4-1,1.33,1.33,0,0,0-.4-1A1.37,1.37,0,0,0,7,.9a1.39,1.39,0,0,0-1,.4,1.36,1.36,0,0,0-.39,1,1.38,1.38,0,0,0,.39,1A1.38,1.38,0,0,0,7,3.61ZM.85,4.29A.85.85,0,0,0,0,5.14v.28s0,2,2.94,2,2.93-2,2.93-2V5.14a.87.87,0,0,0-.24-.6A.86.86,0,0,0,5,4.29Zm5,2.51A3.29,3.29,0,0,0,7,7C9.37,7,9.37,5.2,9.37,5.2V5.14a.83.83,0,0,0-.24-.6.86.86,0,0,0-.6-.25H6a1.27,1.27,0,0,1,.31.85v.29h0v.14c0,.1,0,.2-.06.3A2.35,2.35,0,0,1,5.8,6.8Z"/></g></g></svg>