<svg xmlns="http://www.w3.org/2000/svg" viewBox="0 0 18 14"><g id="Calque_2" data-name="Calque 2"><g id="Calque_1-2" data-name="Calque 1"><path id="menu-burger" d="M0,1A1,1,0,0,1,.29.29,1,1,0,0,1,1,0H17a1,1,0,0,1,.71.29A1,1,0,0,1,18,1a1,1,0,0,1-.29.71A1,1,0,0,1,17,2H1a1,1,0,0,1-.71-.29A1,1,0,0,1,0,1ZM0,13a1,1,0,0,1,.29-.71A1,1,0,0,1,1,12H17a1,1,0,1,1,0,2H1a1,1,0,0,1-.71-.29A1,1,0,0,1,0,13ZM0,7a1,1,0,0,1,.29-.71A1,1,0,0,1,1,6H17a1,1,0,1,1,0,2H7.26L4.61,10.65,2,8H1a1,1,0,0,1-.71-.29A1,1,0,0,1,0,7Z"/></g></g></svg>