<svg xmlns="http://www.w3.org/2000/svg" viewBox="0 0 7.66 7.66"><defs><style>.cls-1{fill:#fff;}</style></defs><g id="Calque_2" data-name="Calque 2"><g id="Calque_1-2" data-name="Calque 1"><path id="search-w" class="cls-1" d="M6.48,6.08l1.1,1.1a.32.32,0,0,1,.08.2.27.27,0,0,1-.28.28.32.32,0,0,1-.2-.08l-1.1-1.1A3.68,3.68,0,0,1,1,6.18,3.68,3.68,0,0,1,6.18,1a3.68,3.68,0,0,1,.3,5.1Zm-2.8.72A3.14,3.14,0,0,0,6.8,3.68,3.12,3.12,0,0,0,3.68.57,3.11,3.11,0,0,0,.57,3.68,3.12,3.12,0,0,0,3.68,6.8Z"/></g></g></svg>