<svg xmlns="http://www.w3.org/2000/svg" viewBox="0 0 24 24"><defs><style>.cls-1{fill:#efefef;}.cls-2{fill:#292726;fill-rule:evenodd;}</style></defs><g id="Calque_2" data-name="Calque 2"><g id="Calque_1-2" data-name="Calque 1"><rect class="cls-1" width="24" height="24" rx="4"/><path class="cls-2" d="M12,6a.75.75,0,0,1,.75.75v8.69L16,12.22a.63.63,0,0,1,.24-.16.73.73,0,0,1,.58,0,.74.74,0,0,1,.4.4.73.73,0,0,1,0,.58.63.63,0,0,1-.16.24l-4.5,4.5a.63.63,0,0,1-.24.16.73.73,0,0,1-.58,0,.63.63,0,0,1-.24-.16L7,13.28A.63.63,0,0,1,6.81,13a.73.73,0,0,1,0-.58A.63.63,0,0,1,7,12.22.75.75,0,0,1,7.5,12a.72.72,0,0,1,.29.06.63.63,0,0,1,.24.16l3.22,3.22V6.75A.75.75,0,0,1,12,6Z"/></g></g></svg>