<svg xmlns="http://www.w3.org/2000/svg" viewBox="0 0 12.79 12.39"><defs><style>.cls-1{fill:#ffce31;}</style></defs><g id="Calque_2" data-name="Calque 2"><g id="Calque_1-2" data-name="Calque 1"><path id="star" class="cls-1" d="M12.37,5.77A1,1,0,0,0,11.78,4H9.14a1,1,0,0,1-1-.69L7.36.7a1,1,0,0,0-1.9,0L4.63,3.27A1,1,0,0,1,3.68,4H1a1,1,0,0,0-.59,1.8L2.6,7.39A1,1,0,0,1,3,8.49l-.82,2.6a1,1,0,0,0,1.55,1.1l2.12-1.57a1,1,0,0,1,1.19,0l2.12,1.56a1,1,0,0,0,1.55-1.1L9.83,8.47a1,1,0,0,1,.37-1.11Z"/></g></g></svg>