<svg xmlns="http://www.w3.org/2000/svg" viewBox="0 0 15.76 15.91"><defs><style>.cls-1{fill:#766e66;}.cls-2{fill:#c9c5c2;}</style></defs><g id="Calque_2" data-name="Calque 2"><g id="Calque_1-2" data-name="Calque 1"><g id="dashboard"><path id="sq3" class="cls-1" d="M2.1,8.71h3a3.94,3.94,0,0,1,.72,0,1.85,1.85,0,0,1,.85.48,1.8,1.8,0,0,1,.48.86,3.12,3.12,0,0,1,0,.72v3h0a3.21,3.21,0,0,1,0,.72,1.81,1.81,0,0,1-.48.85,1.85,1.85,0,0,1-.85.48,3.21,3.21,0,0,1-.72.05h-3a3.17,3.17,0,0,1-.72-.05,1.85,1.85,0,0,1-.85-.48,1.81,1.81,0,0,1-.48-.85,3.21,3.21,0,0,1,0-.72v-3a3.12,3.12,0,0,1,.05-.72,1.8,1.8,0,0,1,.48-.86,1.75,1.75,0,0,1,.85-.47A3.21,3.21,0,0,1,2.1,8.71Z"/><path id="sq2" class="cls-1" d="M10.66,8.71h3a4,4,0,0,1,.72,0,1.85,1.85,0,0,1,.85.48,1.8,1.8,0,0,1,.48.86,3.12,3.12,0,0,1,0,.72v3h0a3.21,3.21,0,0,1,0,.72,1.81,1.81,0,0,1-.48.85,1.85,1.85,0,0,1-.85.48,3.21,3.21,0,0,1-.72.05h-3a3.17,3.17,0,0,1-.72-.05,1.85,1.85,0,0,1-.85-.48,1.81,1.81,0,0,1-.48-.85,3.21,3.21,0,0,1,0-.72v-3a3.12,3.12,0,0,1,0-.72,1.78,1.78,0,0,1,.47-.86,1.82,1.82,0,0,1,.86-.47A3.17,3.17,0,0,1,10.66,8.71Z"/><path id="sq1" class="cls-1" d="M2.1,0h3a3.17,3.17,0,0,1,.72.05,1.76,1.76,0,0,1,.85.48,1.76,1.76,0,0,1,.48.85,3.21,3.21,0,0,1,0,.72v3h0a3.17,3.17,0,0,1,0,.72A1.82,1.82,0,0,1,5.82,7.15a3.21,3.21,0,0,1-.72,0h-3a3.17,3.17,0,0,1-.72,0,1.76,1.76,0,0,1-.85-.48,1.76,1.76,0,0,1-.48-.85A3.21,3.21,0,0,1,0,5.1v-3a3.17,3.17,0,0,1,.05-.72A1.76,1.76,0,0,1,.53.53,1.76,1.76,0,0,1,1.38.05,3.21,3.21,0,0,1,2.1,0Z"/><path id="sq0" class="cls-2" d="M10.66,0h3a3.21,3.21,0,0,1,.72.05,1.76,1.76,0,0,1,.85.48,1.76,1.76,0,0,1,.48.85,3.21,3.21,0,0,1,0,.72v3h0a3.17,3.17,0,0,1,0,.72,1.82,1.82,0,0,1-1.33,1.33,3.21,3.21,0,0,1-.72,0h-3a3.17,3.17,0,0,1-.72,0A1.82,1.82,0,0,1,8.61,5.82a3.21,3.21,0,0,1,0-.72v-3a3.17,3.17,0,0,1,0-.72A1.75,1.75,0,0,1,9.08.53,1.84,1.84,0,0,1,9.94.05,3.17,3.17,0,0,1,10.66,0Z"/></g></g></g></svg>