<svg xmlns="http://www.w3.org/2000/svg" viewBox="0 0 9.11 10.41"><defs><style>.cls-1{fill:#fff;}</style></defs><g id="Calque_2" data-name="Calque 2"><g id="Calque_1-2" data-name="Calque 1"><path id="shop" class="cls-1" d="M3.25,2.28a1.31,1.31,0,0,1,2.61,0v1H3.25Zm-1,1H1a1,1,0,0,0-1,1V8.46a2,2,0,0,0,2,1.95H7.16A2,2,0,0,0,9.11,8.46V4.23a1,1,0,0,0-1-1H6.83v-1a2.28,2.28,0,1,0-4.55,0Zm.49,2a.49.49,0,1,1,0-1,.49.49,0,0,1,0,1Zm4.06-.49a.48.48,0,0,1-.48.49.49.49,0,0,1,0-1A.48.48,0,0,1,6.83,4.72Z"/></g></g></svg>